<mxfile host="app.diagrams.net" modified="2023-11-24T03:14:19.382Z" agent="Mozilla/5.0 (Windows NT 10.0; Win64; x64) AppleWebKit/537.36 (KHTML, like Gecko) Chrome/119.0.0.0 Safari/537.36" etag="7nYk5yEBoTMC7-5bjJn6" version="22.1.3" type="device">
  <diagram name="Página-1" id="G1xvL4GLscwC9Xtsqebu">
    <mxGraphModel dx="834" dy="653" grid="1" gridSize="10" guides="1" tooltips="1" connect="1" arrows="1" fold="1" page="1" pageScale="1" pageWidth="827" pageHeight="1169" math="0" shadow="0">
      <root>
        <mxCell id="0" />
        <mxCell id="1" parent="0" />
        <mxCell id="BFC4rJ54uDtFeVCP5pwE-1" value="Usuário" style="shape=cylinder3;whiteSpace=wrap;html=1;boundedLbl=1;backgroundOutline=1;size=15;" vertex="1" parent="1">
          <mxGeometry x="220" y="110" width="60" height="80" as="geometry" />
        </mxCell>
        <mxCell id="BFC4rJ54uDtFeVCP5pwE-2" value="Consultas" style="shape=cylinder3;whiteSpace=wrap;html=1;boundedLbl=1;backgroundOutline=1;size=15;" vertex="1" parent="1">
          <mxGeometry x="310" y="110" width="60" height="80" as="geometry" />
        </mxCell>
        <mxCell id="BFC4rJ54uDtFeVCP5pwE-3" value="Exames" style="shape=cylinder3;whiteSpace=wrap;html=1;boundedLbl=1;backgroundOutline=1;size=15;" vertex="1" parent="1">
          <mxGeometry x="400" y="110" width="60" height="80" as="geometry" />
        </mxCell>
        <mxCell id="BFC4rJ54uDtFeVCP5pwE-4" value="Medicamentos" style="shape=cylinder3;whiteSpace=wrap;html=1;boundedLbl=1;backgroundOutline=1;size=15;" vertex="1" parent="1">
          <mxGeometry x="490" y="110" width="90" height="80" as="geometry" />
        </mxCell>
        <mxCell id="BFC4rJ54uDtFeVCP5pwE-6" value="Vacinas" style="shape=cylinder3;whiteSpace=wrap;html=1;boundedLbl=1;backgroundOutline=1;size=15;" vertex="1" parent="1">
          <mxGeometry x="610" y="110" width="60" height="80" as="geometry" />
        </mxCell>
        <mxCell id="BFC4rJ54uDtFeVCP5pwE-7" value="Receitas" style="shape=cylinder3;whiteSpace=wrap;html=1;boundedLbl=1;backgroundOutline=1;size=15;" vertex="1" parent="1">
          <mxGeometry x="700" y="110" width="60" height="80" as="geometry" />
        </mxCell>
        <mxCell id="BFC4rJ54uDtFeVCP5pwE-8" value="Lembretes" style="shape=cylinder3;whiteSpace=wrap;html=1;boundedLbl=1;backgroundOutline=1;size=15;" vertex="1" parent="1">
          <mxGeometry x="130" y="110" width="60" height="80" as="geometry" />
        </mxCell>
        <mxCell id="BFC4rJ54uDtFeVCP5pwE-9" value="Atendimento" style="shape=cylinder3;whiteSpace=wrap;html=1;boundedLbl=1;backgroundOutline=1;size=15;" vertex="1" parent="1">
          <mxGeometry x="500" y="210" width="70" height="80" as="geometry" />
        </mxCell>
        <mxCell id="BFC4rJ54uDtFeVCP5pwE-10" value="Familiares" style="shape=cylinder3;whiteSpace=wrap;html=1;boundedLbl=1;backgroundOutline=1;size=15;" vertex="1" parent="1">
          <mxGeometry x="395" y="210" width="70" height="80" as="geometry" />
        </mxCell>
        <mxCell id="BFC4rJ54uDtFeVCP5pwE-11" value="Privacidade" style="shape=cylinder3;whiteSpace=wrap;html=1;boundedLbl=1;backgroundOutline=1;size=15;" vertex="1" parent="1">
          <mxGeometry x="395" y="310" width="70" height="80" as="geometry" />
        </mxCell>
        <mxCell id="BFC4rJ54uDtFeVCP5pwE-12" value="Medicos" style="shape=cylinder3;whiteSpace=wrap;html=1;boundedLbl=1;backgroundOutline=1;size=15;" vertex="1" parent="1">
          <mxGeometry x="605" y="210" width="70" height="80" as="geometry" />
        </mxCell>
        <mxCell id="BFC4rJ54uDtFeVCP5pwE-13" value="Estabelescimento" style="shape=cylinder3;whiteSpace=wrap;html=1;boundedLbl=1;backgroundOutline=1;size=15;" vertex="1" parent="1">
          <mxGeometry x="500" y="310" width="100" height="80" as="geometry" />
        </mxCell>
        <mxCell id="BFC4rJ54uDtFeVCP5pwE-15" value="" style="rounded=0;whiteSpace=wrap;html=1;" vertex="1" parent="1">
          <mxGeometry x="80" y="420" width="690" height="260" as="geometry" />
        </mxCell>
        <mxCell id="BFC4rJ54uDtFeVCP5pwE-14" value="API" style="rhombus;whiteSpace=wrap;html=1;" vertex="1" parent="1">
          <mxGeometry x="80" y="420" width="80" height="80" as="geometry" />
        </mxCell>
        <mxCell id="BFC4rJ54uDtFeVCP5pwE-16" value="Cadastro de usuário" style="whiteSpace=wrap;html=1;aspect=fixed;" vertex="1" parent="1">
          <mxGeometry x="180" y="440" width="80" height="80" as="geometry" />
        </mxCell>
        <mxCell id="BFC4rJ54uDtFeVCP5pwE-17" value="Consulta de Usuário" style="whiteSpace=wrap;html=1;aspect=fixed;" vertex="1" parent="1">
          <mxGeometry x="280" y="440" width="80" height="80" as="geometry" />
        </mxCell>
        <mxCell id="BFC4rJ54uDtFeVCP5pwE-18" value="Consulta de Histórico Médico" style="whiteSpace=wrap;html=1;aspect=fixed;" vertex="1" parent="1">
          <mxGeometry x="380" y="440" width="80" height="80" as="geometry" />
        </mxCell>
        <mxCell id="BFC4rJ54uDtFeVCP5pwE-19" value="Cadastro de Lembretes" style="whiteSpace=wrap;html=1;aspect=fixed;" vertex="1" parent="1">
          <mxGeometry x="480" y="440" width="80" height="80" as="geometry" />
        </mxCell>
        <mxCell id="BFC4rJ54uDtFeVCP5pwE-20" value="Consulta de Lembretes" style="whiteSpace=wrap;html=1;aspect=fixed;" vertex="1" parent="1">
          <mxGeometry x="580" y="440" width="80" height="80" as="geometry" />
        </mxCell>
        <mxCell id="BFC4rJ54uDtFeVCP5pwE-21" value="Consulta de Atendimentos" style="whiteSpace=wrap;html=1;aspect=fixed;" vertex="1" parent="1">
          <mxGeometry x="90" y="545" width="80" height="80" as="geometry" />
        </mxCell>
        <mxCell id="BFC4rJ54uDtFeVCP5pwE-22" value="Consulta de Familiares" style="whiteSpace=wrap;html=1;aspect=fixed;" vertex="1" parent="1">
          <mxGeometry x="280" y="545" width="80" height="80" as="geometry" />
        </mxCell>
        <mxCell id="BFC4rJ54uDtFeVCP5pwE-23" value="Consulta de Privacidade" style="whiteSpace=wrap;html=1;aspect=fixed;" vertex="1" parent="1">
          <mxGeometry x="380" y="545" width="80" height="80" as="geometry" />
        </mxCell>
        <mxCell id="BFC4rJ54uDtFeVCP5pwE-24" value="Cadastro de Privacidade" style="whiteSpace=wrap;html=1;aspect=fixed;" vertex="1" parent="1">
          <mxGeometry x="480" y="545" width="80" height="80" as="geometry" />
        </mxCell>
        <mxCell id="BFC4rJ54uDtFeVCP5pwE-25" value="Consulta de Estabelescimento" style="whiteSpace=wrap;html=1;aspect=fixed;" vertex="1" parent="1">
          <mxGeometry x="580" y="545" width="100" height="100" as="geometry" />
        </mxCell>
        <mxCell id="BFC4rJ54uDtFeVCP5pwE-26" value="" style="rounded=0;whiteSpace=wrap;html=1;" vertex="1" parent="1">
          <mxGeometry x="80" y="720" width="690" height="310" as="geometry" />
        </mxCell>
        <mxCell id="BFC4rJ54uDtFeVCP5pwE-27" value="Tela" style="rhombus;whiteSpace=wrap;html=1;" vertex="1" parent="1">
          <mxGeometry x="80" y="720" width="80" height="80" as="geometry" />
        </mxCell>
        <mxCell id="BFC4rJ54uDtFeVCP5pwE-28" value="Login" style="whiteSpace=wrap;html=1;aspect=fixed;" vertex="1" parent="1">
          <mxGeometry x="180" y="740" width="80" height="80" as="geometry" />
        </mxCell>
        <mxCell id="BFC4rJ54uDtFeVCP5pwE-38" value="Cadastro de Usuário" style="whiteSpace=wrap;html=1;aspect=fixed;" vertex="1" parent="1">
          <mxGeometry x="280" y="740" width="80" height="80" as="geometry" />
        </mxCell>
        <mxCell id="BFC4rJ54uDtFeVCP5pwE-39" value="Home" style="whiteSpace=wrap;html=1;aspect=fixed;" vertex="1" parent="1">
          <mxGeometry x="380" y="740" width="80" height="80" as="geometry" />
        </mxCell>
        <mxCell id="BFC4rJ54uDtFeVCP5pwE-40" value="Grupo Familiar" style="whiteSpace=wrap;html=1;aspect=fixed;" vertex="1" parent="1">
          <mxGeometry x="480" y="740" width="80" height="80" as="geometry" />
        </mxCell>
        <mxCell id="BFC4rJ54uDtFeVCP5pwE-41" value="Cadastro de Grupo Familiar" style="whiteSpace=wrap;html=1;aspect=fixed;" vertex="1" parent="1">
          <mxGeometry x="580" y="740" width="80" height="80" as="geometry" />
        </mxCell>
        <mxCell id="BFC4rJ54uDtFeVCP5pwE-42" value="Exames" style="whiteSpace=wrap;html=1;aspect=fixed;" vertex="1" parent="1">
          <mxGeometry x="675" y="740" width="80" height="80" as="geometry" />
        </mxCell>
        <mxCell id="BFC4rJ54uDtFeVCP5pwE-43" value="Cadastro de Familiares" style="whiteSpace=wrap;html=1;aspect=fixed;" vertex="1" parent="1">
          <mxGeometry x="190" y="545" width="80" height="80" as="geometry" />
        </mxCell>
        <mxCell id="BFC4rJ54uDtFeVCP5pwE-44" value="Medicamentos" style="whiteSpace=wrap;html=1;aspect=fixed;" vertex="1" parent="1">
          <mxGeometry x="90" y="830" width="80" height="80" as="geometry" />
        </mxCell>
        <mxCell id="BFC4rJ54uDtFeVCP5pwE-45" value="Agendamentos" style="whiteSpace=wrap;html=1;aspect=fixed;" vertex="1" parent="1">
          <mxGeometry x="180" y="830" width="80" height="80" as="geometry" />
        </mxCell>
        <mxCell id="BFC4rJ54uDtFeVCP5pwE-46" value="Vacinas" style="whiteSpace=wrap;html=1;aspect=fixed;" vertex="1" parent="1">
          <mxGeometry x="280" y="830" width="80" height="80" as="geometry" />
        </mxCell>
        <mxCell id="BFC4rJ54uDtFeVCP5pwE-47" value="Receitas" style="whiteSpace=wrap;html=1;aspect=fixed;" vertex="1" parent="1">
          <mxGeometry x="380" y="830" width="80" height="80" as="geometry" />
        </mxCell>
        <mxCell id="BFC4rJ54uDtFeVCP5pwE-48" value="Lembretes" style="whiteSpace=wrap;html=1;aspect=fixed;" vertex="1" parent="1">
          <mxGeometry x="480" y="830" width="80" height="80" as="geometry" />
        </mxCell>
        <mxCell id="BFC4rJ54uDtFeVCP5pwE-49" value="Cadastro de Lembrete" style="whiteSpace=wrap;html=1;aspect=fixed;" vertex="1" parent="1">
          <mxGeometry x="580" y="830" width="80" height="80" as="geometry" />
        </mxCell>
        <mxCell id="BFC4rJ54uDtFeVCP5pwE-50" value="Configuração de Privacidade" style="whiteSpace=wrap;html=1;aspect=fixed;" vertex="1" parent="1">
          <mxGeometry x="675" y="830" width="80" height="80" as="geometry" />
        </mxCell>
        <mxCell id="BFC4rJ54uDtFeVCP5pwE-51" value="Atendimentos" style="whiteSpace=wrap;html=1;aspect=fixed;" vertex="1" parent="1">
          <mxGeometry x="90" y="920" width="80" height="80" as="geometry" />
        </mxCell>
        <mxCell id="BFC4rJ54uDtFeVCP5pwE-57" value="Envio Notificações" style="whiteSpace=wrap;html=1;aspect=fixed;" vertex="1" parent="1">
          <mxGeometry x="675" y="440" width="80" height="80" as="geometry" />
        </mxCell>
        <mxCell id="BFC4rJ54uDtFeVCP5pwE-58" value="Perfil" style="whiteSpace=wrap;html=1;aspect=fixed;" vertex="1" parent="1">
          <mxGeometry x="280" y="920" width="80" height="80" as="geometry" />
        </mxCell>
        <mxCell id="BFC4rJ54uDtFeVCP5pwE-59" value="Detalhe Atendimento" style="whiteSpace=wrap;html=1;aspect=fixed;" vertex="1" parent="1">
          <mxGeometry x="180" y="920" width="80" height="80" as="geometry" />
        </mxCell>
      </root>
    </mxGraphModel>
  </diagram>
</mxfile>
